# xmcd
#
# Track frame offsets:
#	150
#	41423
#	71087
#	101490
#	131913
#	165206
#	192315
#
# Disc length: 2888 seconds
#
# Revision: 1
# Processed by: cddbd v1.5.1PL2 Copyright (c) Steve Scherf et al.
# Submitted via: EasyCDDAExtractor 9.0.0.1
#
DISCID=5a0b4607
DTITLE=Black Sabbath - Milton Keynes Bowl 20-06-98 Disc 1
DYEAR=1998
DGENRE=Hard Rock
TTITLE0=War Pigs
TTITLE1=NIB
TTITLE2=Fairies Wear Boots
TTITLE3=Snowblind
TTITLE4=Into The Void
TTITLE5=Spiral Architect
TTITLE6=Lord Of This World
EXTD=
EXTT0=
EXTT1=
EXTT2=
EXTT3=
EXTT4=
EXTT5=
EXTT6=
PLAYORDER=
